<svg width="247" height="367" viewBox="0 0 247 367" fill="none" xmlns="http://www.w3.org/2000/svg">
<ellipse opacity="0.1" cx="66.5" cy="59.5" rx="50.5" ry="42.5" fill="#BDD3DF"/>
<ellipse opacity="0.1" cx="96.5" cy="47.5" rx="50.5" ry="42.5" fill="#BDD3DF"/>
<ellipse opacity="0.1" cx="109.5" cy="75.5" rx="50.5" ry="42.5" fill="#BDD3DF"/>
<ellipse opacity="0.1" cx="103.5" cy="84.5" rx="50.5" ry="42.5" fill="#BDD3DF"/>
<ellipse opacity="0.1" cx="91.5" cy="90.5" rx="50.5" ry="42.5" fill="#BDD3DF"/>
<ellipse opacity="0.1" cx="109.5" cy="133.5" rx="50.5" ry="42.5" fill="#BDD3DF"/>
<ellipse opacity="0.1" cx="154.5" cy="127.5" rx="50.5" ry="42.5" fill="#BDD3DF"/>
<ellipse opacity="0.1" cx="167.5" cy="126.5" rx="50.5" ry="42.5" fill="#BDD3DF"/>
<ellipse opacity="0.1" cx="179.5" cy="91.5" rx="50.5" ry="42.5" fill="#BDD3DF"/>
<ellipse opacity="0.1" cx="179.5" cy="70.5" rx="50.5" ry="42.5" fill="#BDD3DF"/>
<ellipse opacity="0.1" cx="174.5" cy="49.5" rx="50.5" ry="42.5" fill="#BDD3DF"/>
<ellipse opacity="0.1" cx="167.5" cy="54.5" rx="50.5" ry="42.5" fill="#BDD3DF"/>
<ellipse opacity="0.1" cx="167.5" cy="83.5" rx="50.5" ry="42.5" fill="#BDD3DF"/>
<ellipse opacity="0.1" cx="141.5" cy="92.5" rx="50.5" ry="42.5" fill="#BDD3DF"/>
<ellipse opacity="0.1" cx="91.5" cy="102.5" rx="50.5" ry="42.5" fill="#BDD3DF"/>
<ellipse opacity="0.1" cx="73.5" cy="112.5" rx="50.5" ry="42.5" fill="#BDD3DF"/>
<ellipse opacity="0.1" cx="73.5" cy="101.5" rx="50.5" ry="42.5" fill="#BDD3DF"/>
<ellipse opacity="0.1" cx="78.5" cy="97.5" rx="50.5" ry="42.5" fill="#BDD3DF"/>
<ellipse opacity="0.1" cx="116.5" cy="97.5" rx="50.5" ry="42.5" fill="#BDD3DF"/>
<ellipse opacity="0.1" cx="123.5" cy="97.5" rx="50.5" ry="42.5" fill="#BDD3DF"/>
<ellipse opacity="0.1" cx="123.5" cy="83.5" rx="50.5" ry="42.5" fill="#BDD3DF"/>
<ellipse opacity="0.1" cx="116.5" cy="69.5" rx="50.5" ry="42.5" fill="#BDD3DF"/>
<ellipse opacity="0.1" cx="146.5" cy="69.5" rx="50.5" ry="42.5" fill="#BDD3DF"/>
<ellipse opacity="0.1" cx="147.5" cy="96.5" rx="50.5" ry="42.5" fill="#BDD3DF"/>
<ellipse opacity="0.1" cx="142.5" cy="102.5" rx="50.5" ry="42.5" fill="#BDD3DF"/>
<ellipse opacity="0.1" cx="136.5" cy="92.5" rx="50.5" ry="42.5" fill="#BDD3DF"/>
<ellipse opacity="0.1" cx="124.5" cy="92.5" rx="50.5" ry="42.5" fill="#BDD3DF"/>
<ellipse opacity="0.1" cx="123.5" cy="75.5" rx="50.5" ry="42.5" fill="#BDD3DF"/>
<ellipse opacity="0.1" cx="123.5" cy="60.5" rx="50.5" ry="42.5" fill="#BDD3DF"/>
<ellipse opacity="0.1" cx="124.5" cy="70.5" rx="50.5" ry="42.5" fill="#BDD3DF"/>
<ellipse opacity="0.1" cx="85.5" cy="53.5" rx="50.5" ry="42.5" fill="#BDD3DF"/>
<ellipse opacity="0.1" cx="91.5" cy="66.5" rx="50.5" ry="42.5" fill="#BDD3DF"/>
<ellipse opacity="0.1" cx="97.5" cy="75.5" rx="50.5" ry="42.5" fill="#BDD3DF"/>
<ellipse opacity="0.1" cx="154.5" cy="70.5" rx="50.5" ry="42.5" fill="#BDD3DF"/>
<ellipse opacity="0.1" cx="159.5" cy="83.5" rx="50.5" ry="42.5" fill="#BDD3DF"/>
<ellipse opacity="0.1" cx="128.5" cy="113.5" rx="50.5" ry="42.5" fill="#BDD3DF"/>
<ellipse opacity="0.1" cx="58.5" cy="92.5" rx="50.5" ry="42.5" fill="#BDD3DF"/>
<ellipse opacity="0.1" cx="53.5" cy="79.5" rx="50.5" ry="42.5" fill="#BDD3DF"/>
<ellipse opacity="0.1" cx="77.5" cy="125.5" rx="50.5" ry="42.5" fill="#BDD3DF"/>
<ellipse opacity="0.1" cx="183.5" cy="111.5" rx="50.5" ry="42.5" fill="#BDD3DF"/>
<ellipse opacity="0.1" cx="193.5" cy="89.5" rx="50.5" ry="42.5" fill="#BDD3DF"/>
<ellipse opacity="0.1" cx="146.5" cy="42.5" rx="50.5" ry="42.5" fill="#BDD3DF"/>
<ellipse opacity="0.1" cx="124.5" cy="46.5" rx="50.5" ry="42.5" fill="#BDD3DF"/>
<path d="M102.409 315.64L92.9347 258.64C91.9218 252.546 96.6217 247 102.799 247H145.201C151.378 247 156.078 252.546 155.065 258.64L145.591 315.64C144.789 320.464 140.617 324 135.726 324H112.274C107.383 324 103.211 320.464 102.409 315.64Z" fill="#344A59"/>
<path d="M90.1273 348.1L79.3385 324.1C76.3639 317.483 81.2044 310 88.4593 310H159.541C166.796 310 171.636 317.483 168.662 324.1L157.873 348.1C156.259 351.691 152.688 354 148.752 354H99.2481C95.3116 354 91.7413 351.691 90.1273 348.1Z" fill="#283C49"/>
<path d="M90.8498 278.488L76.2079 221.488C74.5826 215.161 79.361 209 85.8934 209H162.107C168.639 209 173.417 215.161 171.792 221.488L157.15 278.488C156.015 282.909 152.029 286 147.465 286H100.535C95.9708 286 91.9855 282.909 90.8498 278.488Z" fill="#445F70"/>
<path d="M49.0173 278.221L74.5745 214.475C77.8511 206.302 90 208.647 90 217.452V249.29C90 251.065 89.5278 252.807 88.6319 254.339L61.896 300.049C60.1024 303.115 56.8166 305 53.2641 305H12.1398C5.84848 305 1.12005 299.26 2.3249 293.085L2.42246 292.585C3.33873 287.889 7.4529 284.5 12.2374 284.5H39.7355C43.8216 284.5 47.4967 282.014 49.0173 278.221Z" fill="#486172"/>
<path d="M197.983 278.221L172.425 214.475C169.149 206.302 157 208.647 157 217.452V249.29C157 251.065 157.472 252.807 158.368 254.339L185.104 300.049C186.898 303.115 190.183 305 193.736 305H234.86C241.152 305 245.88 299.26 244.675 293.085L244.578 292.585C243.661 287.889 239.547 284.5 234.763 284.5H207.265C203.178 284.5 199.503 282.014 197.983 278.221Z" fill="#486172"/>
<path d="M173.5 342.279L158.836 317.253C157.351 314.719 160.017 311.781 162.683 313.013L222.8 340.8C224.871 341.757 226.552 343.394 227.565 345.438L229.474 349.29C233.065 356.54 227.01 364.831 219.012 363.617L85.7817 343.385C81.4511 342.727 78.0526 339.328 77.396 334.997L75.5179 322.609C74.3818 315.114 81.6709 309.13 88.8003 311.704L173.5 342.279Z" fill="#486172"/>
<path d="M29.6559 345.841L77.7685 312.438C80.0848 310.83 83.272 311.454 84.8104 313.817L95.9936 330.996L169.905 328.665C181.446 328.301 191 337.558 191 349.105C191 351.571 189.074 353.608 186.612 353.746L35.2918 362.22C26.2277 362.727 22.1986 351.018 29.6559 345.841Z" fill="#486172"/>
<path d="M169.216 354.367L30.3799 361.996C22.3925 362.434 18.7773 352.174 25.2757 347.509L37.7965 338.52C43.7947 334.214 50.9441 331.802 58.3249 331.592L75.5 331.105L175.312 328.275C180.618 328.124 185 332.384 185 337.692C185 346.559 178.07 353.881 169.216 354.367Z" fill="#486172" stroke="#344A59"/>
<path d="M83.6591 262.194L76.4498 213.598C76.1559 211.617 77.5528 209.784 79.5407 209.541C81.5286 209.298 83.3256 210.742 83.5171 212.735L88.2143 261.638C88.3333 262.876 87.4432 263.984 86.2078 264.135C84.9723 264.286 83.8418 263.425 83.6591 262.194Z" fill="#344A59"/>
<path d="M164.176 262.194L171.385 213.598C171.679 211.617 170.282 209.784 168.294 209.541C166.306 209.298 164.509 210.742 164.318 212.735L159.621 261.638C159.502 262.876 160.392 263.984 161.627 264.135C162.863 264.286 163.993 263.425 164.176 262.194Z" fill="#344A59"/>
<path d="M84.886 309.611L146.5 328.5L75.8257 330.751C72.1748 330.867 69.6355 327.157 71.0657 323.796L75.1799 314.127C76.783 310.36 80.9716 308.411 84.886 309.611Z" fill="#486172" stroke="#344A59"/>
<path d="M113.972 209C114.305 203.956 111.773 189.574 98.9787 172.393C86.1841 155.212 60.3285 134.972 49 127" stroke="#344A59" stroke-width="3"/>
<path d="M120 209.5C120 199.5 117.2 179.7 114 172.5C110 163.5 102.5 159.5 97 150" stroke="#344A59" stroke-width="3"/>
<path d="M126 209C125.5 200.5 125.3 180.9 128.5 170.5C132.5 157.5 142 140.5 142.5 131.5C143 122.5 147.5 110 142.5 98.5" stroke="#344A59" stroke-width="3"/>
<path d="M131.5 209.5C131.5 180.5 139 163.5 145.5 155C152 146.5 179 133 181 132C183 131 199.5 113.5 197 97.5" stroke="#344A59" stroke-width="3"/>
<path d="M138 209C138.167 200.167 139.8 180.7 145 173.5C151.5 164.5 177 171.5 182 163C187 154.5 191.5 145 191.5 138.5" stroke="#344A59" stroke-width="3"/>
</svg>
