<svg width="142" height="151" viewBox="0 0 142 151" fill="none" xmlns="http://www.w3.org/2000/svg">
<path d="M68.378 78.9416L59.9763 78.2703C56.4411 77.9878 53.4379 75.5578 52.4109 72.1488C51.4844 69.0736 52.3324 65.7381 54.6125 63.4881L67.8761 50.4001C70.9146 47.4018 75.6562 47.0164 79.1415 49.4844C83.2215 52.3734 84.1085 58.0796 81.0982 62.0718L68.378 78.9416Z" fill="#418980"/>
<path d="M9.2221 112.149C6.96928 111.949 5.14338 110.251 4.77855 108.017L4.565 106.709C4.37634 105.554 5.06717 104.431 6.18453 104.077L11.0519 102.535C14.0316 101.591 17.1305 103.545 17.559 106.637C18.0068 109.869 15.3247 112.69 12.0784 112.402L9.2221 112.149Z" fill="#326C65"/>
<path d="M18.6406 110.05C16.5306 110.842 14.1765 109.89 13.2117 107.855C12.1835 105.686 13.1002 103.081 15.2614 102.03L36.5141 91.6942C39.4114 90.2852 42.8736 91.6791 43.9835 94.7013C45.0238 97.5341 43.5767 100.69 40.7514 101.751L18.6406 110.05Z" fill="#418980"/>
<path d="M49.0792 104.51C43.421 105.5 37.9801 101.966 36.5877 96.3973L35.4181 91.7189C37.1284 89.0844 39.7447 87.1686 42.7664 86.3382L46.7528 85.2426C51.3768 83.9718 54.8658 80.1411 55.7049 75.4139L56.6211 70.2526L69.1146 69.9553C80.3941 69.687 88.0393 81.2798 83.392 91.6051C81.2843 96.2878 76.9943 99.6258 71.9494 100.509L49.0792 104.51Z" fill="#2A6059"/>
<path d="M41.387 106.919C37.9561 105.055 36.5459 100.851 38.1588 97.2944C39.4602 96.7942 40.9043 96.8144 42.1925 97.351L43.7827 98.0133C45.6402 98.7869 47.7763 98.3991 49.2423 97.0219L51.208 95.1754L55.1747 98.2476C59.2107 101.374 58.7759 107.605 54.3459 110.127C52.2046 111.346 49.5859 111.372 47.4184 110.194L41.387 106.919Z" fill="#326C65"/>
<path d="M87.5996 78.7622C85.8897 81.8346 82.0162 82.9332 78.948 81.2158L76.1989 79.6772C72.9573 77.8628 71.7939 73.7607 73.6004 70.5147L79.245 60.3724C81.3464 56.5966 86.1067 55.2466 89.8774 57.3571C93.9348 59.628 95.391 64.7626 93.1298 68.8255L87.5996 78.7622Z" fill="#326C65"/>
<path d="M97.9478 76.1258C99.5539 80.9612 98.05 86.3078 94.1547 89.6111L93.0854 90.5179C90.8881 92.3813 87.8966 92.9825 85.1686 92.1091C82.7133 91.3229 80.9564 89.1571 80.6842 86.5808L78.4914 65.8314C78.1222 62.3372 80.2432 59.0474 83.5745 57.9472C87.7335 56.5737 92.1988 58.8172 93.5795 62.9741L97.9478 76.1258Z" fill="#418980"/>
<ellipse cx="29.6224" cy="96.9868" rx="9.98667" ry="10.0594" transform="rotate(-160.539 29.6224 96.9868)" fill="#D69682"/>
<path d="M17.4307 95.5403C17.5503 95.1407 17.6908 94.753 17.8505 94.3781C19.2813 91.0184 23.6538 91.33 26.3976 93.7377L32.8785 99.4248C35.6031 101.816 36.4919 106.066 33.3914 107.948C30.8636 109.483 27.7289 109.984 24.6829 109.074C18.9518 107.362 15.7048 101.303 17.4307 95.5403Z" fill="#95B9D0"/>
<path d="M96.7528 80.1537C96.3416 78.7644 95.5868 77.4336 94.2675 76.843C92.4076 76.0104 89.6408 75.8221 88.3475 80.9552L87.5843 82.8653C86.1685 86.4086 88.7835 90.2669 92.5897 90.2506C96.1618 90.2353 98.7154 86.7846 97.6981 83.3474L96.7528 80.1537Z" fill="#D69682"/>
<path d="M72.1436 70.9155C73.3683 70.2167 74.5376 69.2178 74.6744 67.8144C74.8196 66.3242 74.1024 64.6026 69.8601 64.8591C68.055 64.9874 66.2702 65.3284 64.5422 65.8752L59.8278 70.1705L60.8088 71.0554C63.3732 73.3685 67.1325 73.775 70.132 72.0634L72.1436 70.9155Z" fill="#D69682"/>
<path d="M71.7868 64.9535C71.7868 64.9535 68.1864 62.0906 61.9805 64.3134L60.7973 65.6431C58.0421 68.7395 56.2648 72.582 55.6893 76.6866L55.676 76.7814C55.676 76.7814 68.8421 64.1501 71.7868 64.9535Z" fill="#D69682" stroke="#D69682" stroke-miterlimit="10"/>
<path d="M97.4958 132.604C97.8074 133.83 98.9307 134.666 100.192 134.611C103.979 134.447 106.68 130.832 105.771 127.145L80.1755 23.3886C79.5175 20.7215 76.4615 19.4817 74.1246 20.9339C71.5508 22.5332 70.3046 25.6218 71.0498 28.5539L97.4958 132.604Z" fill="#6ED9CC"/>
<path d="M34.8785 95.0756C33.9356 97.0257 31.4138 97.5561 29.7689 96.1503L24.5723 91.7091C23.3035 90.6247 23.5766 88.5859 25.0853 87.8794C26.7645 87.0931 28.7357 87.2758 30.245 88.3576L33.8242 90.9231C35.137 91.8641 35.5826 93.6193 34.8785 95.0756Z" fill="#E2E2E2"/>
<path d="M64.1015 102.614C63.3758 105.856 60.1931 107.93 56.9342 107.284L44.5147 104.822C41.651 104.255 39.6921 101.604 39.9914 98.7005C40.3172 95.5404 43.181 93.2631 46.3346 93.6565L58.8998 95.2239C62.4771 95.6701 64.8889 99.0967 64.1015 102.614Z" fill="#418980"/>
<path d="M29.8458 104.24C28.6084 105.602 28.8106 107.74 30.2813 108.845C33.1103 110.971 37.0762 110.62 39.4887 108.03L106.615 35.9586C109.158 33.2289 108.73 28.8729 105.705 26.6923C103.84 25.348 101.271 25.6176 99.7242 27.3198L29.8458 104.24Z" fill="#79EADC"/>
<path d="M58.9038 105.123C55.8212 104.488 53.9386 101.362 54.8186 98.3401L57.8661 87.8739C58.5645 85.4756 60.9344 83.9642 63.4034 84.3427C66.2158 84.7738 68.0889 87.4718 67.5095 90.2572L65.2897 100.928C64.6826 103.847 61.8235 105.725 58.9038 105.123Z" fill="#418980"/>
<path d="M61.1519 78.2911C61.5292 77.2683 62.5498 76.6276 63.6345 76.7328C66.8904 77.0486 69.4074 79.7175 69.5301 82.9844L69.6177 85.3185C69.7325 88.375 67.0791 90.8138 64.0411 90.4441L63.6351 90.3947C60.2371 89.9811 58.1197 86.5108 59.305 83.2978L61.1519 78.2911Z" fill="#326C65"/>
</svg>
